<?xml version="1.0" encoding="UTF-8" standalone="no"?>
<!-- Created with Inkscape (http://www.inkscape.org/) -->

<svg
   xmlns:dc="http://purl.org/dc/elements/1.1/"
   xmlns:cc="http://creativecommons.org/ns#"
   xmlns:rdf="http://www.w3.org/1999/02/22-rdf-syntax-ns#"
   xmlns:svg="http://www.w3.org/2000/svg"
   xmlns="http://www.w3.org/2000/svg"
   xmlns:sodipodi="http://sodipodi.sourceforge.net/DTD/sodipodi-0.dtd"
   xmlns:inkscape="http://www.inkscape.org/namespaces/inkscape"
   id="svg2"
   version="1.1"
   inkscape:version="0.48.4 r9939"
   width="588.18875"
   height="372.0475"
   xml:space="preserve"
   sodipodi:docname="Escaner 3D_pegatina ajedrezado_MASTER.ai"><metadata
     id="metadata8"><rdf:RDF><cc:Work
         rdf:about=""><dc:format>image/svg+xml</dc:format><dc:type
           rdf:resource="http://purl.org/dc/dcmitype/StillImage" /><dc:title></dc:title></cc:Work></rdf:RDF></metadata><defs
     id="defs6"><clipPath
       clipPathUnits="userSpaceOnUse"
       id="clipPath100"><path
         d="m 0,297.638 470.551,0 L 470.551,0 0,0 0,297.638 z"
         id="path102" /></clipPath></defs><sodipodi:namedview
     pagecolor="#ffffff"
     bordercolor="#666666"
     borderopacity="1"
     objecttolerance="10"
     gridtolerance="10"
     guidetolerance="10"
     inkscape:pageopacity="0"
     inkscape:pageshadow="2"
     inkscape:window-width="664"
     inkscape:window-height="480"
     id="namedview4"
     showgrid="false"
     inkscape:zoom="0.63432763"
     inkscape:cx="294.09436"
     inkscape:cy="182.8708"
     inkscape:window-x="0"
     inkscape:window-y="27"
     inkscape:window-maximized="0"
     inkscape:current-layer="g10" /><g
     id="g10"
     inkscape:groupmode="layer"
     inkscape:label="Escaner 3D_pegatina ajedrezado_MASTER"
     transform="matrix(1.25,0,0,-1.25,0,372.0475)"><path
       d="m 51.024,240.945 -36.85,0 0,36.85 36.85,0 0,-36.85 z"
       style="fill:#292827;fill-opacity:1;fill-rule:nonzero;stroke:none"
       id="path12" /><path
       d="m 124.724,240.945 -36.85,0 0,36.85 36.85,0 0,-36.85 z"
       style="fill:#292827;fill-opacity:1;fill-rule:nonzero;stroke:none"
       id="path14" /><path
       d="m 198.425,240.945 -36.85,0 0,36.85 36.85,0 0,-36.85 z"
       style="fill:#292827;fill-opacity:1;fill-rule:nonzero;stroke:none"
       id="path16" /><path
       d="m 272.126,240.945 -36.85,0 0,36.85 36.85,0 0,-36.85 z"
       style="fill:#292827;fill-opacity:1;fill-rule:nonzero;stroke:none"
       id="path18" /><path
       d="m 345.827,240.945 -36.85,0 0,36.85 36.85,0 0,-36.85 z"
       style="fill:#292827;fill-opacity:1;fill-rule:nonzero;stroke:none"
       id="path20" /><path
       d="m 419.528,240.945 -36.85,0 0,36.85 36.85,0 0,-36.85 z"
       style="fill:#292827;fill-opacity:1;fill-rule:nonzero;stroke:none"
       id="path22" /><path
       d="m 87.874,204.094 -36.85,0 0,36.85 36.85,0 0,-36.85 z"
       style="fill:#292827;fill-opacity:1;fill-rule:nonzero;stroke:none"
       id="path24" /><path
       d="m 161.575,204.094 -36.85,0 0,36.85 36.85,0 0,-36.85 z"
       style="fill:#292827;fill-opacity:1;fill-rule:nonzero;stroke:none"
       id="path26" /><path
       d="m 235.276,204.094 -36.85,0 0,36.85 36.85,0 0,-36.85 z"
       style="fill:#292827;fill-opacity:1;fill-rule:nonzero;stroke:none"
       id="path28" /><path
       d="m 308.976,204.094 -36.85,0 0,36.85 36.85,0 0,-36.85 z"
       style="fill:#292827;fill-opacity:1;fill-rule:nonzero;stroke:none"
       id="path30" /><path
       d="m 382.677,204.094 -36.85,0 0,36.85 36.85,0 0,-36.85 z"
       style="fill:#292827;fill-opacity:1;fill-rule:nonzero;stroke:none"
       id="path32" /><path
       d="m 456.378,204.094 -36.85,0 0,36.85 36.85,0 0,-36.85 z"
       style="fill:#292827;fill-opacity:1;fill-rule:nonzero;stroke:none"
       id="path34" /><path
       d="m 51.024,167.244 -36.85,0 0,36.85 36.85,0 0,-36.85 z"
       style="fill:#292827;fill-opacity:1;fill-rule:nonzero;stroke:none"
       id="path36" /><path
       d="m 124.724,167.244 -36.85,0 0,36.85 36.85,0 0,-36.85 z"
       style="fill:#292827;fill-opacity:1;fill-rule:nonzero;stroke:none"
       id="path38" /><path
       d="m 198.425,167.244 -36.85,0 0,36.85 36.85,0 0,-36.85 z"
       style="fill:#292827;fill-opacity:1;fill-rule:nonzero;stroke:none"
       id="path40" /><path
       d="m 272.126,167.244 -36.85,0 0,36.85 36.85,0 0,-36.85 z"
       style="fill:#292827;fill-opacity:1;fill-rule:nonzero;stroke:none"
       id="path42" /><path
       d="m 345.827,167.244 -36.85,0 0,36.85 36.85,0 0,-36.85 z"
       style="fill:#292827;fill-opacity:1;fill-rule:nonzero;stroke:none"
       id="path44" /><path
       d="m 419.528,167.244 -36.85,0 0,36.85 36.85,0 0,-36.85 z"
       style="fill:#292827;fill-opacity:1;fill-rule:nonzero;stroke:none"
       id="path46" /><path
       d="m 87.874,130.394 -36.85,0 0,36.85 36.85,0 0,-36.85 z"
       style="fill:#292827;fill-opacity:1;fill-rule:nonzero;stroke:none"
       id="path48" /><path
       d="m 161.575,130.394 -36.85,0 0,36.85 36.85,0 0,-36.85 z"
       style="fill:#292827;fill-opacity:1;fill-rule:nonzero;stroke:none"
       id="path50" /><path
       d="m 235.276,130.394 -36.85,0 0,36.85 36.85,0 0,-36.85 z"
       style="fill:#292827;fill-opacity:1;fill-rule:nonzero;stroke:none"
       id="path52" /><path
       d="m 308.976,130.394 -36.85,0 0,36.85 36.85,0 0,-36.85 z"
       style="fill:#292827;fill-opacity:1;fill-rule:nonzero;stroke:none"
       id="path54" /><path
       d="m 382.677,130.394 -36.85,0 0,36.85 36.85,0 0,-36.85 z"
       style="fill:#292827;fill-opacity:1;fill-rule:nonzero;stroke:none"
       id="path56" /><path
       d="m 456.378,130.394 -36.85,0 0,36.85 36.85,0 0,-36.85 z"
       style="fill:#292827;fill-opacity:1;fill-rule:nonzero;stroke:none"
       id="path58" /><path
       d="m 51.024,93.543 -36.85,0 0,36.85 36.85,0 0,-36.85 z"
       style="fill:#292827;fill-opacity:1;fill-rule:nonzero;stroke:none"
       id="path60" /><path
       d="m 124.724,93.543 -36.85,0 0,36.85 36.85,0 0,-36.85 z"
       style="fill:#292827;fill-opacity:1;fill-rule:nonzero;stroke:none"
       id="path62" /><path
       d="m 198.425,93.543 -36.85,0 0,36.85 36.85,0 0,-36.85 z"
       style="fill:#292827;fill-opacity:1;fill-rule:nonzero;stroke:none"
       id="path64" /><path
       d="m 272.126,93.543 -36.85,0 0,36.85 36.85,0 0,-36.85 z"
       style="fill:#292827;fill-opacity:1;fill-rule:nonzero;stroke:none"
       id="path66" /><path
       d="m 345.827,93.543 -36.85,0 0,36.85 36.85,0 0,-36.85 z"
       style="fill:#292827;fill-opacity:1;fill-rule:nonzero;stroke:none"
       id="path68" /><path
       d="m 419.528,93.543 -36.85,0 0,36.85 36.85,0 0,-36.85 z"
       style="fill:#292827;fill-opacity:1;fill-rule:nonzero;stroke:none"
       id="path70" /><path
       d="m 87.874,56.693 -36.85,0 0,36.85 36.85,0 0,-36.85 z"
       style="fill:#292827;fill-opacity:1;fill-rule:nonzero;stroke:none"
       id="path72" /><path
       d="m 161.575,56.693 -36.85,0 0,36.85 36.85,0 0,-36.85 z"
       style="fill:#292827;fill-opacity:1;fill-rule:nonzero;stroke:none"
       id="path74" /><path
       d="m 235.276,56.693 -36.85,0 0,36.85 36.85,0 0,-36.85 z"
       style="fill:#292827;fill-opacity:1;fill-rule:nonzero;stroke:none"
       id="path76" /><path
       d="m 308.976,56.693 -36.85,0 0,36.85 36.85,0 0,-36.85 z"
       style="fill:#292827;fill-opacity:1;fill-rule:nonzero;stroke:none"
       id="path78" /><path
       d="m 382.677,56.693 -36.85,0 0,36.85 36.85,0 0,-36.85 z"
       style="fill:#292827;fill-opacity:1;fill-rule:nonzero;stroke:none"
       id="path80" /><path
       d="m 456.378,56.693 -36.85,0 0,36.85 36.85,0 0,-36.85 z"
       style="fill:#292827;fill-opacity:1;fill-rule:nonzero;stroke:none"
       id="path82" /><path
       d="m 51.024,19.843 -36.85,0 0,36.85 36.85,0 0,-36.85 z"
       style="fill:#292827;fill-opacity:1;fill-rule:nonzero;stroke:none"
       id="path84" /><path
       d="m 124.724,19.843 -36.85,0 0,36.85 36.85,0 0,-36.85 z"
       style="fill:#292827;fill-opacity:1;fill-rule:nonzero;stroke:none"
       id="path86" /><path
       d="m 198.425,19.843 -36.85,0 0,36.85 36.85,0 0,-36.85 z"
       style="fill:#292827;fill-opacity:1;fill-rule:nonzero;stroke:none"
       id="path88" /><path
       d="m 272.126,19.843 -36.85,0 0,36.85 36.85,0 0,-36.85 z"
       style="fill:#292827;fill-opacity:1;fill-rule:nonzero;stroke:none"
       id="path90" /><path
       d="m 345.827,19.843 -36.85,0 0,36.85 36.85,0 0,-36.85 z"
       style="fill:#292827;fill-opacity:1;fill-rule:nonzero;stroke:none"
       id="path92" /><path
       d="m 419.528,19.843 -36.85,0 0,36.85 36.85,0 0,-36.85 z"
       style="fill:#292827;fill-opacity:1;fill-rule:nonzero;stroke:none"
       id="path94" /><g
       id="g96"><g
         id="g98"
         clip-path="url(#clipPath100)"><g
           id="g104"
           transform="translate(470.5512,0)"><path
             d="m 0,0 -470.551,0 0,274.592 c 0,12.675 10.37,23.046 23.046,23.046 l 424.459,0 C -10.318,297.638 0,287.32 0,274.592 L 0,0 z"
             style="fill:none;stroke:#e60c80;stroke-opacity:1;stroke-width:0.709;stroke-linecap:round;stroke-linejoin:round;stroke-miterlimit:10;stroke-dasharray:none"
             id="path106" /></g></g></g></g></svg>